<svg width="24" height="24" viewBox="0 0 24 24" fill="none" xmlns="http://www.w3.org/2000/svg">
<path d="M8.27235 3.06294C7.31475 3.10812 6.6608 3.26094 6.08912 3.48559C5.49746 3.71617 4.99598 4.02559 4.49702 4.52635C3.99805 5.02711 3.69079 5.52895 3.46183 6.12151C3.24025 6.69446 3.09013 7.34894 3.04783 8.30708C3.00553 9.26523 2.99617 9.57321 3.00085 12.0173C3.00553 14.4613 3.01633 14.7677 3.06277 15.7278C3.10849 16.6852 3.26077 17.339 3.48541 17.9108C3.71635 18.5025 4.02541 19.0038 4.52636 19.5029C5.0273 20.0021 5.52878 20.3086 6.12278 20.5379C6.69518 20.7592 7.34985 20.91 8.30781 20.9519C9.26577 20.9939 9.57411 21.0036 12.0174 20.9989C14.4608 20.9942 14.7684 20.9834 15.7283 20.9379C16.6883 20.8924 17.3386 20.739 17.9107 20.5154C18.5023 20.284 19.004 19.9754 19.5028 19.4743C20.0015 18.9732 20.3086 18.471 20.5374 17.8781C20.7592 17.3057 20.9098 16.651 20.9514 15.6938C20.9934 14.7331 21.0033 14.4264 20.9986 11.9827C20.9939 9.53901 20.9829 9.23265 20.9374 8.27288C20.8918 7.31312 20.7394 6.66134 20.5149 6.08911C20.2836 5.49745 19.9749 4.99651 19.4741 4.49701C18.9734 3.99751 18.4708 3.69061 17.8781 3.46237C17.3053 3.24078 16.651 3.08976 15.6931 3.04836C14.7351 3.00696 14.4268 2.99634 11.9825 3.00102C9.53829 3.0057 9.23229 3.01614 8.27235 3.06294ZM8.37747 19.3328C7.49997 19.2947 7.0235 19.1489 6.70598 19.0268C6.2855 18.8648 5.98598 18.669 5.66954 18.3556C5.3531 18.0422 5.1587 17.7416 4.99454 17.3221C4.87124 17.0045 4.72274 16.5286 4.6817 15.6511C4.63706 14.7027 4.6277 14.4179 4.62248 12.0151C4.61726 9.61227 4.62644 9.32787 4.66802 8.37908C4.70546 7.5023 4.85216 7.0253 4.97402 6.70796C5.13602 6.28694 5.33114 5.98795 5.64524 5.67169C5.95934 5.35543 6.25904 5.16067 6.67898 4.99651C6.99614 4.87267 7.47207 4.72543 8.34921 4.68367C9.29835 4.63867 9.58275 4.62967 11.9852 4.62445C14.3877 4.61923 14.6728 4.62823 15.6223 4.66999C16.4991 4.70815 16.9763 4.85341 17.2933 4.97599C17.7139 5.13799 18.0133 5.33257 18.3295 5.64721C18.6458 5.96185 18.8407 6.26048 19.0049 6.68132C19.1289 6.99758 19.2761 7.47332 19.3175 8.351C19.3627 9.30015 19.373 9.58473 19.3773 11.987C19.3816 14.3893 19.3732 14.6746 19.3316 15.623C19.2932 16.5005 19.1478 16.9772 19.0256 17.2951C18.8636 17.7154 18.6683 18.0151 18.354 18.3311C18.0397 18.6472 17.7404 18.842 17.3203 19.0061C17.0035 19.1298 16.527 19.2774 15.6506 19.3192C14.7014 19.3638 14.417 19.3732 12.0137 19.3784C9.61029 19.3836 9.32679 19.3739 8.37765 19.3328M15.7145 7.18982C15.7148 7.40344 15.7785 7.61215 15.8975 7.78957C16.0165 7.96698 16.1854 8.10513 16.3829 8.18653C16.5804 8.26793 16.7976 8.28894 17.0071 8.24689C17.2165 8.20484 17.4088 8.10162 17.5596 7.95029C17.7103 7.79896 17.8128 7.60632 17.8541 7.39673C17.8954 7.18714 17.8736 6.97001 17.7915 6.77281C17.7093 6.5756 17.5706 6.40719 17.3927 6.28885C17.2149 6.17052 17.0059 6.10759 16.7923 6.10801C16.5059 6.10859 16.2315 6.22287 16.0294 6.42574C15.8273 6.62861 15.714 6.90345 15.7145 7.18982ZM7.37865 12.009C7.38369 14.5614 9.45657 16.6258 12.0084 16.621C14.5603 16.6161 16.6262 14.5434 16.6213 11.991C16.6165 9.43857 14.543 7.3736 11.9908 7.37864C9.43857 7.38368 7.37379 9.45693 7.37865 12.009ZM8.99973 12.0057C8.99856 11.4124 9.17336 10.832 9.50204 10.338C9.83071 9.84398 10.2985 9.45853 10.8462 9.23037C11.394 9.00222 11.9971 8.94162 12.5793 9.05622C13.1614 9.17083 13.6966 9.4555 14.117 9.87423C14.5374 10.293 14.8241 10.827 14.9411 11.4087C15.058 11.9904 14.9997 12.5937 14.7738 13.1424C14.5478 13.691 14.1642 14.1603 13.6715 14.491C13.1788 14.8216 12.5991 14.9987 12.0057 14.9999C11.6118 15.0007 11.2215 14.9239 10.8572 14.7739C10.4929 14.6238 10.1617 14.4035 9.88252 14.1255C9.60338 13.8474 9.38174 13.5171 9.23027 13.1534C9.0788 12.7897 9.00046 12.3997 8.99973 12.0057Z" fill="#20293A"/>
</svg>
