<svg width="18" height="17" viewBox="0 0 18 17" fill="none" xmlns="http://www.w3.org/2000/svg">
<path fill-rule="evenodd" clip-rule="evenodd" d="M10.5 0.5C10.5 0.223858 10.7239 0 11 0H17C17.2761 0 17.5 0.223858 17.5 0.5V6.5C17.5 6.77614 17.2761 7 17 7C16.7239 7 16.5 6.77614 16.5 6.5V1.70711L7.35355 10.8536C7.15829 11.0488 6.84171 11.0488 6.64645 10.8536C6.45118 10.6583 6.45118 10.3417 6.64645 10.1464L15.7929 1H11C10.7239 1 10.5 0.776142 10.5 0.5ZM1.23223 2.73223C1.70107 2.26339 2.33696 2 3 2H7C7.27614 2 7.5 2.22386 7.5 2.5C7.5 2.77614 7.27614 3 7 3H3C2.60218 3 2.22064 3.15804 1.93934 3.43934C1.65804 3.72064 1.5 4.10218 1.5 4.5V14.5C1.5 14.8978 1.65804 15.2794 1.93934 15.5607C2.22064 15.842 2.60218 16 3 16H13C13.3978 16 13.7794 15.842 14.0607 15.5607C14.342 15.2794 14.5 14.8978 14.5 14.5V10.5C14.5 10.2239 14.7239 10 15 10C15.2761 10 15.5 10.2239 15.5 10.5V14.5C15.5 15.163 15.2366 15.7989 14.7678 16.2678C14.2989 16.7366 13.663 17 13 17H3C2.33696 17 1.70107 16.7366 1.23223 16.2678C0.763392 15.7989 0.5 15.163 0.5 14.5V4.5C0.5 3.83696 0.763392 3.20107 1.23223 2.73223Z" fill="#20293A"/>
</svg>
