<svg width="24" height="24" viewBox="0 0 24 24" fill="none" xmlns="http://www.w3.org/2000/svg">
<path d="M9.6311 17V20.4432C9.6311 20.6837 9.77653 20.8966 9.99173 20.9725C10.0454 20.991 10.1008 21 10.1552 21C10.3186 21 10.4765 20.9182 10.5774 20.7728L12.4732 18.0318L9.6311 17Z" fill="#20293A"/>
<path d="M20.7635 3.11134C20.5909 2.98084 20.3645 2.96322 20.1771 3.06822L3.30212 12.4679C3.10279 12.5793 2.98501 12.8062 3.00154 13.0454C3.01876 13.2854 3.16818 13.4902 3.38017 13.5678L8.07142 15.2781L18.0621 6.16645L10.3313 16.1016L18.1936 18.9681C18.252 18.9888 18.3135 19 18.375 19C18.477 19 18.5782 18.9704 18.6675 18.9126C18.8099 18.82 18.9069 18.664 18.9315 18.4885L20.9941 3.68846C21.0244 3.46496 20.9361 3.24259 20.7635 3.11134Z" fill="#20293A"/>
</svg>
