<svg width="19" height="19" viewBox="0 0 19 19" fill="none" xmlns="http://www.w3.org/2000/svg">
<path d="M18 9.5C18 11.7543 17.1045 13.9163 15.5104 15.5104C13.9163 17.1045 11.7543 18 9.5 18M18 9.5C18 7.24566 17.1045 5.08365 15.5104 3.48959C13.9163 1.89553 11.7543 1 9.5 1M18 9.5H1M9.5 18C7.24566 18 5.08365 17.1045 3.48959 15.5104C1.89553 13.9163 1 11.7543 1 9.5M9.5 18C11.0649 18 12.3333 14.1939 12.3333 9.5C12.3333 4.80611 11.0649 1 9.5 1M9.5 18C7.93506 18 6.66667 14.1939 6.66667 9.5C6.66667 4.80611 7.93506 1 9.5 1M9.5 1C7.24566 1 5.08365 1.89553 3.48959 3.48959C1.89553 5.08365 1 7.24566 1 9.5" stroke="currentColor" stroke-linecap="round" stroke-linejoin="round"/>
</svg>
