<svg width="24" height="24" viewBox="0 0 24 24" fill="none" xmlns="http://www.w3.org/2000/svg">
<path d="M21 12C21 7.02948 16.9705 3 12 3C7.02948 3 3 7.02948 3 12C3 16.2206 5.90592 19.7623 9.82596 20.735V14.7504H7.9698V12H9.82596V10.8149C9.82596 7.75164 11.212 6.3318 14.218 6.3318C14.7882 6.3318 15.7721 6.4434 16.1746 6.55536V9.048C15.9622 9.02568 15.5932 9.01452 15.1349 9.01452C13.6589 9.01452 13.089 9.5736 13.089 11.0269V11.9989H16.032L15.528 14.7493H13.0904V20.9341C17.5465 20.3959 21 16.6015 21 12Z" fill="#20293A"/>
</svg>
