<svg width="128" height="80" viewBox="0 0 128 80" fill="none" xmlns="http://www.w3.org/2000/svg">
    <path
        d="M3.86367 21.1737C1.7298 21.7455 0.463471 23.9388 1.03524 26.0727L13.6571 73.1783C14.2289 75.3121 16.4223 76.5785 18.5561 76.0067L37 71.0647V24C37 20.6863 39.6863 18 43 18H87.7103L83.9223 3.86316C83.3505 1.7293 81.1572 0.462968 79.0233 1.03474L3.86367 21.1737Z"
        fill="#E2E7EE" />
    <path
        d="M62.1009 48.9827L74.0867 60.9898L78.3953 56.6977L70.7002 49.0005L78.3953 41.3209L74.0867 37.0112L62.1009 48.9827Z"
        fill="#E2E7EE" />
    <path
        d="M72.7037 48.9827L84.6896 60.9898L88.9981 56.68L81.3208 48.9827L88.9981 41.3032L84.6896 36.9934L72.7037 48.9827Z"
        fill="#E2E7EE" />
    <path fill-rule="evenodd" clip-rule="evenodd"
        d="M43.6377 20.6387C41.4286 20.6387 39.6377 22.4295 39.6377 24.6387V73.3621C39.6377 75.5712 41.4286 77.3621 43.6377 77.3621H121.362C123.571 77.3621 125.362 75.5712 125.362 73.3621V24.6387C125.362 22.4295 123.571 20.6387 121.362 20.6387H43.6377ZM83.3244 48.9827L95.3102 60.9898L99.6187 56.6977L104.92 62.0007L99.6187 67.3036L94.3173 62.0007L88.9981 67.3036L83.6967 62.0007L78.3775 67.3036L60.0796 49.0005L78.3775 30.6973L83.6967 36.018L88.9981 30.6973L94.3173 36.018L99.6187 30.6973L104.92 36.018L99.6187 41.3209L95.3102 36.9934L83.3244 48.9827Z"
        fill="#E2E7EE" />
</svg>